<svg xmlns="http://www.w3.org/2000/svg" xmlns:xlink="http://www.w3.org/1999/xlink" viewBox="0,0,256,256" width="50px" height="50px"><g fill="#fcc419" fill-rule="nonzero" stroke="none" stroke-width="1" stroke-linecap="butt" stroke-linejoin="miter" stroke-miterlimit="10" stroke-dasharray="" stroke-dashoffset="0" font-family="none" font-weight="none" font-size="none" text-anchor="none" style="mix-blend-mode: normal"><g transform="scale(5.12,5.12)"><path d="M16.85156,0.01172c-0.12831,0.01927 -0.2558,0.06277 -0.37305,0.13477c-0.472,0.288 -0.62003,0.904 -0.33203,1.375l1.64063,2.68164c-2.95031,1.98083 -5.04932,5.13193 -5.61719,8.79688h25.66016c-0.56728,-3.66494 -2.66698,-6.81605 -5.61719,-8.79687l1.64063,-2.68164c0.288,-0.471 0.13997,-1.087 -0.33203,-1.375c-0.472,-0.288 -1.087,-0.13897 -1.375,0.33203l-1.67383,2.73633c-1.66315,-0.77574 -3.51478,-1.21484 -5.47266,-1.21484c-1.95788,0 -3.80948,0.4391 -5.47266,1.21484l-1.67383,-2.73633c-0.21675,-0.35325 -0.61702,-0.52459 -1.00195,-0.4668zM8,5c-2.206,0 -4,1.794 -4,4c0,2.206 1.794,4 4,4h2.14844c0.41,-3.054 1.74012,-5.813 3.70312,-8zM19.5,7c0.828,0 1.5,0.672 1.5,1.5c0,0.828 -0.672,1.5 -1.5,1.5c-0.828,0 -1.5,-0.672 -1.5,-1.5c0,-0.828 0.672,-1.5 1.5,-1.5zM30.5,7c0.828,0 1.5,0.672 1.5,1.5c0,0.828 -0.672,1.5 -1.5,1.5c-0.828,0 -1.5,-0.672 -1.5,-1.5c0,-0.828 0.672,-1.5 1.5,-1.5zM4,13.46094v25.53906c0,2.757 2.243,5 5,5h4.2793l-0.42969,0.91211c-0.789,1.677 -0.19639,3.70047 1.34961,4.60547c0.539,0.315 1.15148,0.48242 1.77148,0.48242c1.369,0 2.62608,-0.79344 3.20508,-2.02344l1.86133,-3.97656h7.92578l1.85742,3.9707c0.582,1.235 1.83998,2.0293 3.20898,2.0293c0.62,0 1.23248,-0.16742 1.77148,-0.48242c1.546,-0.905 2.13961,-2.92847 1.34961,-4.60547l-0.42969,-0.91211h2.2793v-20c0,-0.552 0.447,-1 1,-1h4c2.206,0 4,-1.794 4,-4c0,-2.206 -1.794,-4 -4,-4h-4h-28h-4c-1.538,0 -2.937,-0.58506 -4,-1.53906zM25,20c0.553,0 1,0.448 1,1v2.14258c1.721,0.447 3,1.99942 3,3.85742c0,1.098 -0.44506,2.09341 -1.16406,2.81641l7.50586,15.94727c0.339,0.72 0.13422,1.6283 -0.55078,2.0293c-0.242,0.142 -0.50472,0.20703 -0.76172,0.20703c-0.563,0 -1.14048,-0.33395 -1.39648,-0.87695l-1.46094,-3.12305l-4.04102,-8.63672c-0.846,-1.808 -3.41572,-1.808 -4.26172,0l-4.04102,8.63672l-1.46094,3.12305c-0.256,0.543 -0.83348,0.87695 -1.39648,0.87695c-0.257,0 -0.51972,-0.06503 -0.76172,-0.20703c-0.686,-0.401 -0.88878,-1.30834 -0.55078,-2.02734l7.50391,-15.94922c-0.718,-0.724 -1.16211,-1.71841 -1.16211,-2.81641c0,-1.858 1.279,-3.41042 3,-3.85742v-2.14258c0,-0.552 0.447,-1 1,-1zM48,23.46094c-1.063,0.954 -2.462,1.53906 -4,1.53906h-3v20v4c0,0.552 0.447,1 1,1h1c2.757,0 5,-2.243 5,-5zM25,25c-1.10457,0 -2,0.89543 -2,2c0,1.10457 0.89543,2 2,2c1.10457,0 2,-0.89543 2,-2c0,-1.10457 -0.89543,-2 -2,-2z"></path></g></g></svg>