<?xml version="1.0" encoding="UTF-8"?>
<svg xmlns="http://www.w3.org/2000/svg" xmlns:xlink="http://www.w3.org/1999/xlink" viewBox="0 0 48 48" width="48px" height="48px">
<g id="surface642061">
<path style=" stroke:none;fill-rule:nonzero;fill:rgb(94.509804%,76.862746%,5.882353%);fill-opacity:1;" d="M 44 24 C 44 35.046875 35.046875 44 24 44 C 12.953125 44 4 35.046875 4 24 C 4 12.953125 12.953125 4 24 4 C 35.046875 4 44 12.953125 44 24 Z M 44 24 "/>
<path style=" stroke:none;fill-rule:nonzero;fill:rgb(100%,100%,100%);fill-opacity:1;" d="M 33.355469 21.5 L 24.476562 21.5 C 24.289062 21.5 24.167969 21.300781 24.253906 21.136719 L 29.28125 11.390625 C 29.414062 11.136719 29.089844 10.898438 28.886719 11.097656 L 14.683594 25.070312 C 14.527344 25.226562 14.636719 25.5 14.859375 25.5 L 24.199219 25.5 C 24.402344 25.5 24.519531 25.726562 24.40625 25.890625 L 17.277344 36.15625 C 17.109375 36.402344 17.433594 36.683594 17.652344 36.484375 L 33.527344 21.933594 C 33.695312 21.78125 33.585938 21.5 33.355469 21.5 Z M 33.355469 21.5 "/>
</g>
</svg>
