<?xml version="1.0" encoding="UTF-8"?>
<svg xmlns="http://www.w3.org/2000/svg" xmlns:xlink="http://www.w3.org/1999/xlink" viewBox="0 0 50 50" width="50px" height="50px">
<g id="surface702106">
<path style=" stroke:none;fill-rule:nonzero;fill:rgb(94.509804%,76.862746%,5.882353%);fill-opacity:1;" d="M 22 0 C 15 0 10 7 10 14 C 10 29.5 23 42 23 42 C 23 42 14 29 14 14 C 14 2 22 0 22 0 Z M 25 0 C 22.398438 0 18 3.160156 18 15 C 18 26.058594 23.578125 40.738281 23.816406 41.355469 L 24.0625 42 L 25.9375 42 L 26.183594 41.355469 C 26.421875 40.738281 32 26.058594 32 15 C 32 3.160156 27.601562 0 25 0 Z M 28 0 C 28 0 36 2 36 14 C 36 29 27 42 27 42 C 27 42 40 29.5 40 14 C 40 7 35 0 28 0 Z M 14 2 C 14 2 6 5 6 14 C 6 31 21.5 42 21.5 42 C 21.5 42 8 30 8 14 C 8 5.75 14 2 14 2 Z M 36 2 C 36 2 42 5.75 42 14 C 42 30 28.5 42 28.5 42 C 28.5 42 44 31 44 14 C 44 5 36 2 36 2 Z M 21 44 C 20.691406 44 20.402344 44.140625 20.214844 44.386719 C 20.023438 44.628906 19.953125 44.941406 20.03125 45.242188 L 21.03125 49.242188 C 21.140625 49.6875 21.539062 50 22 50 L 28 50 C 28.460938 50 28.859375 49.6875 28.972656 49.242188 L 29.972656 45.242188 C 30.046875 44.941406 29.976562 44.628906 29.789062 44.386719 C 29.597656 44.140625 29.308594 44 29 44 Z M 21 44 "/>
</g>
</svg>
