<?xml version="1.0" encoding="UTF-8"?>
<svg xmlns="http://www.w3.org/2000/svg" xmlns:xlink="http://www.w3.org/1999/xlink" viewBox="0 0 48 48" width="48px" height="48px">
<g id="surface120898323">
<path style=" stroke:none;fill-rule:nonzero;fill:rgb(98.823529%,76.862746%,9.803922%);fill-opacity:1;" d="M 24 4 C 13 4 4 13 4 24 C 4 35 13 44 24 44 C 35 44 44 35 44 24 C 44 13 35 4 24 4 Z M 12.855469 35.144531 C 9.855469 32.144531 8.285156 28.144531 8.285156 24.289062 L 23.855469 39.714844 C 19.855469 39.570312 15.855469 38.144531 12.855469 35.144531 Z M 27.425781 39.289062 L 8.714844 20.570312 C 10.285156 13.570312 16.570312 8.285156 24 8.285156 C 29.285156 8.285156 33.855469 10.855469 36.714844 14.714844 L 34.570312 16.570312 C 32.144531 13.285156 28.285156 11.144531 24 11.144531 C 18.429688 11.144531 13.714844 14.714844 11.855469 19.714844 L 28.285156 36.144531 C 32.429688 34.714844 35.570312 31.144531 36.570312 26.855469 L 29.714844 26.855469 L 29.714844 24 L 39.714844 24 C 39.714844 31.429688 34.429688 37.714844 27.429688 39.285156 Z M 27.425781 39.289062 "/>
</g>
</svg>
