<?xml version="1.0" encoding="UTF-8"?>
<svg xmlns="http://www.w3.org/2000/svg" xmlns:xlink="http://www.w3.org/1999/xlink" viewBox="0 0 24 24" width="24px" height="24px">
<g id="surface575380">
<path style=" stroke:none;fill-rule:nonzero;fill:rgb(94.509804%,76.862746%,5.882353%);fill-opacity:1;" d="M 20.65625 13.355469 C 19.820312 13.359375 19.09375 13.5625 18.484375 13.859375 C 18.261719 13.417969 18.035156 13.027344 17.996094 12.734375 C 17.953125 12.394531 17.902344 12.191406 17.957031 11.789062 C 18.007812 11.386719 18.242188 10.8125 18.238281 10.769531 C 18.238281 10.726562 18.1875 10.519531 17.703125 10.519531 C 17.21875 10.515625 16.808594 10.609375 16.757812 10.738281 C 16.710938 10.867188 16.617188 11.152344 16.558594 11.453125 C 16.472656 11.890625 15.59375 13.457031 15.09375 14.273438 C 14.929688 13.953125 14.789062 13.671875 14.761719 13.449219 C 14.71875 13.113281 14.664062 12.910156 14.71875 12.503906 C 14.773438 12.101562 15.007812 11.527344 15.003906 11.484375 C 15 11.441406 14.949219 11.238281 14.46875 11.234375 C 13.984375 11.230469 13.570312 11.328125 13.519531 11.453125 C 13.472656 11.582031 13.421875 11.882812 13.320312 12.171875 C 13.222656 12.460938 12.050781 15.066406 11.746094 15.742188 C 11.589844 16.085938 11.453125 16.363281 11.355469 16.554688 L 11.355469 16.550781 C 11.355469 16.550781 11.351562 16.566406 11.339844 16.585938 C 11.257812 16.746094 11.210938 16.835938 11.210938 16.835938 C 11.210938 16.835938 11.210938 16.835938 11.210938 16.839844 C 11.144531 16.957031 11.074219 17.066406 11.039062 17.066406 C 11.015625 17.066406 10.96875 16.753906 11.050781 16.320312 C 11.226562 15.414062 11.644531 14.003906 11.640625 13.957031 C 11.636719 13.933594 11.71875 13.6875 11.367188 13.558594 C 11.023438 13.433594 10.902344 13.640625 10.871094 13.640625 C 10.84375 13.644531 10.820312 13.714844 10.820312 13.714844 C 10.820312 13.714844 11.199219 12.128906 10.09375 12.128906 C 9.402344 12.128906 8.445312 12.886719 7.972656 13.570312 C 7.675781 13.730469 7.039062 14.078125 6.363281 14.449219 C 6.105469 14.59375 5.839844 14.738281 5.589844 14.878906 C 5.570312 14.859375 5.554688 14.839844 5.535156 14.820312 C 4.195312 13.390625 1.71875 12.378906 1.824219 10.457031 C 1.859375 9.757812 2.105469 7.917969 6.582031 5.6875 C 10.253906 3.859375 13.191406 4.363281 13.695312 5.476562 C 14.421875 7.070312 12.128906 10.03125 8.316406 10.457031 C 6.863281 10.621094 6.101562 10.058594 5.910156 9.847656 C 5.710938 9.628906 5.679688 9.617188 5.605469 9.660156 C 5.484375 9.726562 5.5625 9.921875 5.605469 10.039062 C 5.71875 10.335938 6.1875 10.859375 6.984375 11.121094 C 7.683594 11.351562 9.386719 11.476562 11.449219 10.679688 C 13.757812 9.785156 15.5625 7.300781 15.03125 5.226562 C 14.492188 3.113281 10.992188 2.417969 7.675781 3.597656 C 5.707031 4.292969 3.570312 5.394531 2.035156 6.828125 C 0.210938 8.535156 -0.0820312 10.023438 0.0390625 10.644531 C 0.464844 12.851562 3.507812 14.285156 4.722656 15.351562 C 4.664062 15.386719 4.609375 15.414062 4.554688 15.445312 C 3.945312 15.746094 1.628906 16.960938 1.046875 18.242188 C 0.390625 19.695312 1.152344 20.738281 1.65625 20.878906 C 3.21875 21.316406 4.824219 20.53125 5.6875 19.246094 C 6.550781 17.960938 6.445312 16.285156 6.046875 15.519531 C 6.042969 15.511719 6.039062 15.503906 6.03125 15.492188 C 6.191406 15.398438 6.351562 15.304688 6.511719 15.210938 C 6.820312 15.027344 7.128906 14.859375 7.390625 14.714844 C 7.242188 15.121094 7.132812 15.605469 7.078125 16.308594 C 7.011719 17.132812 7.351562 18.199219 7.792969 18.621094 C 7.988281 18.804688 8.222656 18.808594 8.371094 18.808594 C 8.886719 18.808594 9.121094 18.382812 9.382812 17.875 C 9.699219 17.253906 9.980469 16.527344 9.980469 16.527344 C 9.980469 16.527344 9.628906 18.484375 10.589844 18.484375 C 10.941406 18.484375 11.292969 18.027344 11.449219 17.796875 C 11.449219 17.800781 11.453125 17.800781 11.453125 17.800781 C 11.453125 17.800781 11.460938 17.785156 11.480469 17.757812 C 11.515625 17.699219 11.535156 17.664062 11.535156 17.664062 C 11.535156 17.664062 11.535156 17.660156 11.539062 17.65625 C 11.679688 17.410156 11.992188 16.851562 12.460938 15.929688 C 13.066406 14.742188 13.648438 13.25 13.648438 13.25 C 13.648438 13.25 13.703125 13.613281 13.878906 14.21875 C 13.984375 14.570312 14.203125 14.964844 14.378906 15.339844 C 14.238281 15.535156 14.152344 15.648438 14.152344 15.648438 C 14.152344 15.648438 14.152344 15.648438 14.152344 15.652344 C 14.042969 15.800781 13.914062 15.964844 13.785156 16.121094 C 13.304688 16.691406 12.734375 17.339844 12.660156 17.527344 C 12.570312 17.75 12.589844 17.910156 12.765625 18.042969 C 12.890625 18.140625 13.117188 18.152344 13.355469 18.136719 C 13.785156 18.109375 14.085938 18.003906 14.234375 17.9375 C 14.46875 17.855469 14.738281 17.726562 14.992188 17.539062 C 15.464844 17.195312 15.746094 16.699219 15.71875 16.046875 C 15.703125 15.6875 15.589844 15.328125 15.445312 14.992188 C 15.488281 14.933594 15.527344 14.871094 15.570312 14.808594 C 16.3125 13.726562 16.886719 12.535156 16.886719 12.535156 C 16.886719 12.535156 16.941406 12.902344 17.117188 13.503906 C 17.207031 13.808594 17.382812 14.140625 17.542969 14.46875 C 16.847656 15.03125 16.414062 15.691406 16.265625 16.121094 C 15.988281 16.917969 16.207031 17.277344 16.613281 17.359375 C 16.796875 17.398438 17.058594 17.3125 17.253906 17.230469 C 17.496094 17.148438 17.789062 17.015625 18.0625 16.816406 C 18.53125 16.46875 18.984375 15.988281 18.957031 15.332031 C 18.945312 15.035156 18.863281 14.738281 18.753906 14.457031 C 19.34375 14.210938 20.105469 14.074219 21.078125 14.1875 C 23.164062 14.429688 23.574219 15.734375 23.496094 16.277344 C 23.417969 16.824219 22.980469 17.121094 22.832031 17.214844 C 22.6875 17.304688 22.640625 17.335938 22.652344 17.402344 C 22.671875 17.5 22.738281 17.496094 22.863281 17.476562 C 23.035156 17.445312 23.960938 17.03125 24 16.023438 C 24.050781 14.746094 22.824219 13.34375 20.65625 13.355469 Z M 4.578125 18.773438 C 3.886719 19.527344 2.921875 19.8125 2.507812 19.574219 C 2.0625 19.316406 2.238281 18.203125 3.085938 17.40625 C 3.601562 16.917969 4.269531 16.46875 4.714844 16.191406 C 4.8125 16.132812 4.960938 16.042969 5.140625 15.933594 C 5.171875 15.917969 5.1875 15.910156 5.1875 15.910156 L 5.1875 15.90625 C 5.222656 15.886719 5.257812 15.867188 5.296875 15.84375 C 5.601562 16.980469 5.304688 17.984375 4.578125 18.773438 Z M 9.613281 15.351562 C 9.371094 15.941406 8.867188 17.441406 8.5625 17.359375 C 8.296875 17.289062 8.136719 16.148438 8.507812 15.027344 C 8.695312 14.460938 9.09375 13.785156 9.328125 13.523438 C 9.703125 13.101562 10.121094 12.964844 10.222656 13.136719 C 10.351562 13.355469 9.761719 14.984375 9.613281 15.351562 Z M 13.769531 17.339844 C 13.667969 17.390625 13.574219 17.425781 13.53125 17.398438 C 13.5 17.378906 13.574219 17.308594 13.574219 17.308594 C 13.574219 17.308594 14.09375 16.75 14.296875 16.496094 C 14.417969 16.347656 14.554688 16.171875 14.707031 15.976562 C 14.707031 15.996094 14.707031 16.015625 14.707031 16.03125 C 14.707031 16.703125 14.058594 17.15625 13.769531 17.339844 Z M 16.972656 16.605469 C 16.898438 16.554688 16.910156 16.378906 17.160156 15.832031 C 17.257812 15.617188 17.484375 15.257812 17.871094 14.914062 C 17.917969 15.054688 17.945312 15.191406 17.945312 15.316406 C 17.941406 16.160156 17.339844 16.476562 16.972656 16.605469 Z M 16.972656 16.605469 "/>
</g>
</svg>
