<?xml version="1.0" encoding="UTF-8"?>
<svg xmlns="http://www.w3.org/2000/svg" xmlns:xlink="http://www.w3.org/1999/xlink" viewBox="0 0 48 48" width="48px" height="48px">
<defs>
<linearGradient id="linear0" gradientUnits="userSpaceOnUse" x1="21.861" y1="8.237" x2="25.702999" y2="36.551998" gradientTransform="matrix(0.999999,0,0,0.999999,0,0)">
<stop offset="0" style="stop-color:rgb(98.823529%,90.196079%,9.803922%);stop-opacity:1;"/>
<stop offset="1" style="stop-color:rgb(98.823529%,76.862746%,9.803922%);stop-opacity:1;"/>
</linearGradient>
</defs>
<g id="surface120918870">
<path style=" stroke:none;fill-rule:nonzero;fill:url(#linear0);" d="M 24 9.605469 C 18.410156 9.605469 14.652344 12.042969 12.722656 16.921875 C 12.523438 17.425781 13.140625 17.84375 13.539062 17.472656 C 15.574219 15.589844 17.863281 14.96875 20.398438 15.601562 C 22.226562 16.058594 23.53125 17.382812 24.976562 18.847656 C 27.328125 21.234375 30.050781 24 36 24 C 41.589844 24 45.347656 21.558594 47.277344 16.679688 C 47.476562 16.175781 46.859375 15.761719 46.460938 16.128906 C 44.425781 18.011719 42.136719 18.636719 39.601562 18.003906 C 37.773438 17.546875 36.46875 16.222656 35.023438 14.753906 C 32.671875 12.367188 29.949219 9.605469 24 9.605469 Z M 12 24 C 6.410156 24 2.652344 26.441406 0.722656 31.320312 C 0.523438 31.824219 1.140625 32.238281 1.539062 31.871094 C 3.574219 29.988281 5.863281 29.363281 8.398438 30 C 10.226562 30.457031 11.53125 31.78125 12.976562 33.246094 C 15.328125 35.632812 18.050781 38.398438 24 38.398438 C 29.589844 38.398438 33.347656 35.957031 35.277344 31.078125 C 35.476562 30.574219 34.859375 30.15625 34.460938 30.527344 C 32.425781 32.410156 30.136719 33.03125 27.601562 32.398438 C 25.773438 31.941406 24.46875 30.617188 23.023438 29.152344 C 20.671875 26.765625 17.949219 24 12 24 Z M 12 24 "/>
</g>
</svg>
